<svg width="510" height="510" viewBox="0 0 510 510" fill="none" xmlns="http://www.w3.org/2000/svg">
<path d="M119 399.948C110.337 394.947 105 385.703 105 375.7L105 198.031C105 188.028 110.337 178.784 119 173.782L272.865 84.9482C281.529 79.9465 292.202 79.9465 300.865 84.9482L454.731 173.782C463.394 178.784 468.731 188.028 468.731 198.031L468.731 375.7C468.731 385.703 463.394 394.947 454.731 399.948L300.865 488.782C292.202 493.784 281.529 493.784 272.865 488.782L119 399.948Z" fill="url(#paint0_linear_9_3)"/>
<path d="M253.41 145.538C313.054 140.795 367.245 169.45 395.711 215.093C350.94 166.325 264.85 165.564 200.771 214.228C139.649 260.647 120.119 335.656 153.141 387.962C130.771 365.077 116.113 335.069 113.435 301.386C107.12 221.963 169.788 152.187 253.41 145.538Z" fill="#0B1020"/>
<defs>
<linearGradient id="paint0_linear_9_3" x1="181.865" y1="105" x2="391.865" y2="468.731" gradientUnits="userSpaceOnUse">
<stop stop-color="#7C6CFF"/>
<stop offset="0.25" stop-color="#2563EB"/>
<stop offset="1" stop-color="#4ED9FF"/>
</linearGradient>
</defs>
</svg>